<svg width="24" height="24" viewBox="0 0 24 24" fill="none"
    xmlns="http://www.w3.org/2000/svg">
    <path d="M13.0473 4.59219L15.9371 7.37891L16.727 7.88047V11.4828C17.1184 11.5461 17.5027 11.6516 17.866 11.7898V3.34297C17.866 2.6 17.2637 2 16.523 2H5.48164C4.73867 2 4.13867 2.60234 4.13867 3.34297V3.59375C4.20664 3.58437 4.27227 3.57734 4.34258 3.57734H12.4426L13.0473 4.59219Z" fill="#3B64F4"/>
    <path d="M9.70313 17.4218C9.70313 14.0913 12.4031 11.396 15.7289 11.396C16.0688 11.396 16.4016 11.4241 16.725 11.478V7.87568L15.9352 7.37412L13.0477 4.59209L12.4406 3.57959H4.34297C3.6 3.57959 3 4.18193 3 4.92256V20.0163C3 20.7593 3.60234 21.3593 4.34297 21.3593H11.1727C10.2563 20.3069 9.70313 18.9288 9.70313 17.4218Z" fill="#618DFF"/>
    <path d="M12.4268 3.57959L16.7322 7.88506H13.54C12.9096 7.88506 12.4268 7.40225 12.4268 6.77178V3.57959ZM18.2041 15.4647L15.3236 18.3476L13.5729 16.5968L13.0221 17.1476L15.3236 19.4491L18.7549 16.0179L18.2041 15.4647Z" fill="#A4C3FF"/>
    <path d="M19.7203 13.3227C18.6516 12.2563 17.2313 11.668 15.7242 11.668C14.2125 11.668 12.7922 12.2563 11.7234 13.3227C10.6547 14.3891 10.0664 15.8047 10.0664 17.3141C10.0664 18.4133 10.3828 19.4773 10.9828 20.3937C11.1633 20.668 11.5359 20.7477 11.8125 20.5672C11.9461 20.4805 12.0398 20.3445 12.0727 20.1875C12.1055 20.0305 12.075 19.8711 11.9883 19.7375C11.5172 19.018 11.2687 18.1766 11.2687 17.3094C11.2687 14.8555 13.2656 12.8609 15.7266 12.8609C18.1828 12.8609 20.1844 14.8578 20.1844 17.3094C20.1844 19.7633 18.1875 21.7578 15.7266 21.7578C14.9133 21.7578 14.1164 21.5375 13.425 21.1203C13.1414 20.9516 12.7758 21.0406 12.6023 21.3219C12.5203 21.4555 12.4945 21.6195 12.5344 21.7719C12.5719 21.9266 12.668 22.0578 12.8063 22.1398C13.6852 22.6719 14.6953 22.9508 15.7289 22.9508C17.2406 22.9508 18.6609 22.3625 19.725 21.2961C20.7937 20.2297 21.382 18.8141 21.382 17.3047C21.3797 15.8047 20.7891 14.3844 19.7203 13.3227Z" fill="#A4C3FF"/>
    <path d="M12.359 9.96152H4.83555C4.80039 9.96152 4.77227 9.9334 4.77227 9.89824V9.20684C4.77227 9.17168 4.80039 9.14355 4.83555 9.14355H12.3613C12.3965 9.14355 12.4246 9.17168 12.4246 9.20684V9.89824C12.427 9.93105 12.3941 9.96152 12.359 9.96152ZM10.2332 13.2967H4.73711C4.70195 13.2967 4.67383 13.2686 4.67383 13.2334V12.5396C4.67383 12.5045 4.70195 12.4764 4.73711 12.4764H10.2332C10.2684 12.4764 10.2965 12.5045 10.2965 12.5396V13.2311C10.2988 13.2639 10.273 13.2967 10.2332 13.2967ZM8.98867 16.6037H4.73711C4.70195 16.6037 4.67383 16.5756 4.67383 16.5404V15.849C4.67383 15.8139 4.70195 15.7857 4.73711 15.7857H8.98867C9.02383 15.7857 9.05195 15.8139 9.05195 15.849V16.5404C9.05664 16.5756 9.02852 16.6037 8.98867 16.6037Z" fill="white"/>
</svg>
