<svg width="26" height="26" viewBox="0 0 26 26" fill="none" xmlns="http://www.w3.org/2000/svg">
<path d="M4.82667 19.4098C4.82667 19.8596 4.98669 20.2402 5.30674 20.5515C5.62678 20.8629 6.01169 21.0186 6.46148 21.0186H12.9229V24.2623H4.82667C4.37688 24.2623 3.95737 24.1758 3.56813 24.0028C3.17889 23.8298 2.83722 23.5963 2.54313 23.3022C2.24904 23.0081 2.0155 22.6664 1.8425 22.2772C1.66951 21.8879 1.58301 21.4684 1.58301 21.0186V4.80031C1.58301 4.35052 1.66951 3.931 1.8425 3.54176C2.0155 3.15252 2.24904 2.81086 2.54313 2.51677C2.83722 2.22267 3.17889 1.98913 3.56813 1.81613C3.95737 1.64314 4.37688 1.55664 4.82667 1.55664H22.6798C23.1296 1.55664 23.5491 1.64314 23.9383 1.81613C24.3276 1.98913 24.6693 2.22267 24.9633 2.51677C25.2574 2.81086 25.491 3.15252 25.664 3.54176C25.837 3.931 25.9235 4.35052 25.9235 4.80031V11.2357L22.6798 11.3136V9.67878C22.6798 9.22899 22.5198 8.84407 22.1997 8.52403C21.8797 8.20399 21.4948 8.04397 21.045 8.04397H6.46148C6.01169 8.04397 5.62678 8.20399 5.30674 8.52403C4.98669 8.84407 4.82667 9.22899 4.82667 9.67878V19.4098ZM20.2665 12.8965C21.045 12.8965 21.7802 13.0435 22.4722 13.3376C23.1642 13.6317 23.7697 14.0383 24.2887 14.5572C24.8076 15.0762 25.2185 15.6817 25.5213 16.3737C25.824 17.0657 25.9754 17.8096 25.9754 18.6053C25.9754 19.4011 25.824 20.145 25.5213 20.837C25.2185 21.529 24.8076 22.1345 24.2887 22.6534C23.7697 23.1724 23.1642 23.579 22.4722 23.8731C21.7802 24.1671 21.045 24.3142 20.2665 24.3142C19.4707 24.3142 18.7269 24.1671 18.0349 23.8731C17.3429 23.579 16.7374 23.1724 16.2184 22.6534C15.6994 22.1345 15.2886 21.529 14.9858 20.837C14.6831 20.145 14.5317 19.4011 14.5317 18.6053C14.5317 17.8096 14.6831 17.0657 14.9858 16.3737C15.2886 15.6817 15.6994 15.0762 16.2184 14.5572C16.7374 14.0383 17.3429 13.6317 18.0349 13.3376C18.7269 13.0435 19.4707 12.8965 20.2665 12.8965ZM24.2887 19.4098V17.775H21.045V14.5313H19.4361V17.775H16.1925V19.4098H19.4361V22.6534H21.045V19.4098H24.2887Z" fill="url(#paint0_linear_425_21905)" fill-opacity="0.6"/>
<defs>
<linearGradient id="paint0_linear_425_21905" x1="13.7792" y1="1.55664" x2="13.7792" y2="24.3142" gradientUnits="userSpaceOnUse">
<stop stop-color="#2F54EB"/>
<stop offset="1" stop-color="#98CEFF"/>
</linearGradient>
</defs>
</svg>
