<svg width="36" height="36" viewBox="0 0 36 36" fill="none" xmlns="http://www.w3.org/2000/svg">
<circle cx="17.8854" cy="17.9621" r="17.4621" fill="#FF969C"/>
<path fill-rule="evenodd" clip-rule="evenodd" d="M17.7592 35.4985C27.5171 35.4985 35.4274 27.6804 35.4274 18.0364C35.4274 17.3048 35.3819 16.5837 35.2935 15.8758C34.2149 7.25304 26.776 0.578125 17.7596 0.578125C8.00173 0.578125 0.0913696 8.39619 0.0913696 18.0403C0.0913696 18.7719 0.136889 19.4929 0.225282 20.2009C1.30389 28.8236 8.74282 35.4985 17.7592 35.4985Z" fill="#95A1E2"/>
<path fill-rule="evenodd" clip-rule="evenodd" d="M11.2187 9.96094H24.552C24.9057 9.96094 25.2448 10.1014 25.4948 10.3515C25.7449 10.6015 25.8854 10.9406 25.8854 11.2943V24.6276C25.8854 24.9812 25.7449 25.3204 25.4948 25.5704C25.2448 25.8205 24.9057 25.9609 24.552 25.9609H11.2187C10.8651 25.9609 10.5259 25.8205 10.2759 25.5704C10.0259 25.3204 9.88538 24.9812 9.88538 24.6276V11.2943C9.88538 10.9406 10.0259 10.6015 10.2759 10.3515C10.5259 10.1014 10.8651 9.96094 11.2187 9.96094ZM15.3204 16.5861L12.3654 13.1386L13.1247 12.4878L16.3407 16.2398L16.6017 16.5443L16.3611 16.8652L13.1451 21.1532L12.3451 20.5532L15.3204 16.5861ZM17.033 20.8526H23.465V19.8526H17.033V20.8526Z" fill="white"/>
</svg>
