<svg width="36" height="36" viewBox="0 0 36 36" fill="none" xmlns="http://www.w3.org/2000/svg">
<ellipse cx="18.1577" cy="17.9953" rx="17.2961" ry="17.4621" fill="#FF969C"/>
<path fill-rule="evenodd" clip-rule="evenodd" d="M18.0328 35.5317C27.6979 35.5317 35.533 27.7136 35.533 18.0696C35.533 17.3427 35.4885 16.6262 35.4021 15.9226C34.3398 7.2933 26.9686 0.611328 18.0333 0.611328C8.36814 0.611328 0.53302 8.4294 0.53302 18.0735C0.53302 18.8003 0.577528 19.5168 0.663973 20.2204C1.72622 28.8497 9.09747 35.5317 18.0328 35.5317Z" fill="#FF7C7C"/>
<path d="M21.8947 21.5167C22.2099 20.9717 22.7989 20.6052 23.4737 20.6052C24.4805 20.6052 25.2966 21.4213 25.2966 22.4281C25.2966 23.4349 24.4805 24.251 23.4737 24.251C22.7989 24.251 22.2099 23.8845 21.8947 23.3396H17.7124C17.2766 25.4774 15.3858 27.0861 13.1193 27.0861C10.5305 27.0861 8.43176 24.9874 8.43176 22.3986C8.43176 20.0789 10.1167 18.1527 12.3296 17.7773L13.0832 19.5343L13.1193 19.534C11.5372 19.534 10.2547 20.8165 10.2547 22.3986C10.2547 23.9806 11.5372 25.2632 13.1193 25.2632C14.7013 25.2632 15.9839 23.9806 15.9839 22.3986C15.9839 22.0909 15.9354 21.7944 15.8456 21.5167L21.8947 21.5167Z" fill="white"/>
<path d="M18.3693 15.2432C17.7595 15.2242 17.1733 14.8995 16.8458 14.3324C16.3426 13.4605 16.6413 12.3456 17.5132 11.8422C18.385 11.3388 19.4999 11.6376 20.0032 12.5095C20.3504 13.1106 20.3161 13.8274 19.9755 14.3795L22.0297 17.9374C24.0989 17.2458 26.4374 18.0789 27.5707 20.0418C28.865 22.2838 28.0969 25.1506 25.8549 26.445C23.846 27.6048 21.3354 27.1087 19.9039 25.3802L21.0487 23.8489L21.0303 23.8178C21.8214 25.1879 23.5733 25.6574 24.9435 24.8664C26.3135 24.0752 26.7829 22.3234 25.9919 20.9532C25.2009 19.5832 23.4489 19.1137 22.0789 19.9047C21.8194 20.0541 21.585 20.2433 21.3842 20.4655L18.3693 15.2432Z" fill="white"/>
<path d="M14.7621 21.5083C15.0802 22.0548 15.1047 22.7518 14.766 23.3385C14.2625 24.2104 13.1477 24.5091 12.2758 24.0057C11.4039 23.5024 11.1052 22.3875 11.6086 21.5156C11.9446 20.9339 12.5526 20.6073 13.1792 20.6039L15.2959 16.9375C13.6624 15.4913 13.2147 13.0495 14.3479 11.0867C15.6423 8.84468 18.5091 8.07658 20.7512 9.37097C22.7601 10.5309 23.5857 12.953 22.8044 15.0572L20.906 14.8313L20.8882 14.8628C21.6792 13.4926 21.2098 11.7406 19.8397 10.9496C18.4696 10.1586 16.7176 10.628 15.9266 11.9982C15.1356 13.3682 15.605 15.1202 16.9752 15.9112C17.2343 16.0612 17.5154 16.1696 17.8081 16.2324L14.7621 21.5083Z" fill="white"/>
</svg>
