<svg width="35" height="35" viewBox="0 0 36 36" fill="none" xmlns="http://www.w3.org/2000/svg">
<ellipse cx="18.3212" cy="18.2109" rx="17.4602" ry="17.5" fill="#529BF6"/>
<path d="M26.0663 16.2429C25.7654 15.1416 25.2641 14.2906 24.1611 14.2906H22.7071V15.9926C22.7071 17.2941 21.6041 18.3954 20.3006 18.3954H16.5153C15.4624 18.3954 14.6101 19.2964 14.6101 20.3476V23.9768C14.6101 25.028 15.5126 25.6287 16.5153 25.9291C17.7186 26.2795 18.8717 26.3295 20.3006 25.9291C21.2532 25.6287 22.2058 25.0781 22.2058 23.9768V22.5251H18.4205V22.0246H24.1109C25.2139 22.0246 25.615 21.2236 26.0161 20.0723C26.4673 18.946 26.4673 17.7947 26.0663 16.2429ZM20.5763 23.5263C20.9774 23.5263 21.2782 23.8767 21.2782 24.2771C21.2782 24.6776 20.9774 25.028 20.5763 25.028C20.1753 25.028 19.8744 24.6776 19.8744 24.2771C19.8744 23.8266 20.2254 23.5263 20.5763 23.5263ZM16.39 17.9448H20.1753C21.2281 17.9448 22.0804 17.0438 22.0804 15.9926V12.3634C22.0804 11.3122 21.2281 10.5613 20.1753 10.3611C18.8717 10.1609 17.518 10.1609 16.39 10.3611C14.7856 10.6615 14.4848 11.2621 14.4848 12.3634V13.8151H18.2701V14.3157H13.0308C11.9278 14.3157 10.9251 14.9664 10.6243 16.2679C10.2733 17.7196 10.2733 18.6206 10.6243 20.1474C10.875 21.2987 11.5268 22.0996 12.6799 22.0996H13.9834V20.3476C13.9834 19.0962 15.0864 17.9448 16.39 17.9448ZM16.1393 12.9141C15.7382 12.9141 15.4374 12.5636 15.4374 12.1632C15.4374 11.7627 15.7382 11.4123 16.1393 11.4123C16.5404 11.4123 16.8412 11.7627 16.8412 12.1632C16.8161 12.5636 16.5153 12.9141 16.1393 12.9141Z" fill="white"/>
</svg>
