<svg width="35" height="35" viewBox="0 0 36 36" fill="none" xmlns="http://www.w3.org/2000/svg">
<ellipse cx="18.3212" cy="18.1836" rx="17.4602" ry="17.5" fill="#529BF6"/>
<path fill-rule="evenodd" clip-rule="evenodd" d="M14.1649 1.22104C15.4593 0.921872 16.8084 0.763672 18.1948 0.763672C27.9516 0.763672 35.8611 8.59869 35.8611 18.2637C35.8611 26.4372 30.2043 33.302 22.5573 35.226C21.2629 35.5252 19.9137 35.6834 18.5273 35.6834C8.77049 35.6834 0.861023 27.8484 0.861023 18.1834C0.861023 10.0098 6.51782 3.14502 14.1649 1.22104Z" fill="url(#paint0_linear_1344_40739)" fill-opacity="0.75"/>
<path fill-rule="evenodd" clip-rule="evenodd" d="M21.5292 10.4498C21.5108 10.4327 21.4916 10.4165 21.4722 10.401V13.6381C21.4722 13.6864 21.4927 13.7326 21.5291 13.7667C21.5656 13.8008 21.6151 13.82 21.6666 13.82H25.1286C25.112 13.8018 25.0947 13.7838 25.0763 13.7667L21.5292 10.4498ZM20.6944 10.1836V13.6381C20.6947 13.8792 20.7972 14.1102 20.9795 14.2807C21.1618 14.4511 21.4089 14.547 21.6666 14.5472H25.3611V25.2745C25.3608 25.5155 25.2583 25.7466 25.076 25.917C24.8937 26.0875 24.6466 26.1833 24.3889 26.1836H12.3333C12.0755 26.1833 11.8284 26.0875 11.6462 25.917C11.4639 25.7466 11.3614 25.5155 11.3611 25.2745V11.0927C11.3614 10.8517 11.4639 10.6206 11.6462 10.4502C11.8284 10.2797 12.0755 10.1839 12.3333 10.1836H20.6944ZM21.213 19.3556L21.8288 19.792C21.9973 19.9132 22.0426 20.1253 21.9389 20.3011L21.2454 21.3981C21.1741 21.5253 21.025 21.5981 20.8695 21.5981C20.8176 21.5981 20.7658 21.592 20.7139 21.5738L19.9815 21.3072C19.8519 21.386 19.7288 21.4526 19.5991 21.5072L19.4889 22.2102C19.4565 22.4041 19.275 22.5496 19.0547 22.5496H17.6676C17.4473 22.5496 17.2593 22.3981 17.2334 22.2041L17.1232 21.5072C16.9936 21.4526 16.8639 21.386 16.7408 21.3072L16.0084 21.5738C15.9565 21.592 15.9112 21.5981 15.8593 21.5981C15.7038 21.5981 15.5547 21.5193 15.4769 21.392L14.7899 20.3072C14.6797 20.1253 14.725 19.9132 14.8936 19.792L15.5093 19.3556C15.4963 19.2829 15.4963 19.2163 15.4963 19.1556C15.4963 19.1001 15.5018 19.0395 15.5077 18.9738C15.5082 18.9678 15.5088 18.9617 15.5093 18.9556L14.8936 18.5193C14.725 18.3981 14.6797 18.1738 14.7899 18.0041L15.4834 16.9132C15.5547 16.786 15.7038 16.7132 15.8593 16.7132C15.9112 16.7132 15.963 16.7193 16.0149 16.7375L16.7473 17.0041C16.8769 16.9253 17 16.8587 17.1297 16.8041L17.2334 16.1011C17.2658 15.9072 17.4473 15.7617 17.6676 15.7617H19.0547C19.275 15.7617 19.4565 15.9072 19.4889 16.1072L19.5991 16.8041C19.7288 16.8587 19.8584 16.9253 19.9815 17.0041L20.7139 16.7375C20.7658 16.7193 20.8112 16.7132 20.863 16.7132C21.0186 16.7132 21.1676 16.792 21.2454 16.9193L21.9325 18.0041C22.0426 18.186 21.9973 18.3981 21.8288 18.5193L21.213 18.9556C21.2195 19.0163 21.226 19.0829 21.226 19.1556C21.226 19.2284 21.2195 19.295 21.213 19.3556ZM18.3612 20.6102C19.2167 20.6102 19.9167 19.9556 19.9167 19.1556C19.9167 18.3556 19.2167 17.7011 18.3612 17.7011C17.5056 17.7011 16.8056 18.3556 16.8056 19.1556C16.8056 19.9556 17.5056 20.6102 18.3612 20.6102Z" fill="white"/>
<defs>
<linearGradient id="paint0_linear_1344_40739" x1="35.8609" y1="0.914443" x2="15.3962" y2="34.0122" gradientUnits="userSpaceOnUse">
<stop offset="0.0001" stop-color="#438EFF" stop-opacity="0.947917"/>
<stop offset="1" stop-color="#1371FF" stop-opacity="0"/>
</linearGradient>
</defs>
</svg>
