<svg width="36" height="36" viewBox="0 0 36 36" fill="none" xmlns="http://www.w3.org/2000/svg">
<ellipse cx="17.8107" cy="17.5428" rx="17.4601" ry="17.4627" fill="#B09AED"/>
<path fill-rule="evenodd" clip-rule="evenodd" d="M9.39019 2.20043C11.8633 0.898176 14.6866 0.160156 17.6843 0.160156C27.441 0.160156 35.3505 7.97847 35.3505 17.6228C35.3505 24.2439 31.6227 30.0043 26.1287 32.9652C23.6556 34.2674 20.8323 35.0054 17.8346 35.0054C8.07778 35.0054 0.168335 27.1871 0.168335 17.5428C0.168335 10.9217 3.8961 5.16134 9.39019 2.20043Z" fill="url(#paint0_linear_1344_40802)" fill-opacity="0.75"/>
<path d="M18.0057 18.0906L25.7654 13.7448V12.0877C25.7654 11.6475 25.3572 11.291 24.8531 11.291H10.6657C10.1616 11.291 9.75336 11.6475 9.75336 12.0877V13.7448L17.5131 18.0906C17.6636 18.1743 17.8552 18.1743 18.0057 18.0906Z" fill="white"/>
<path d="M18.2521 20.0411C17.951 20.207 17.5678 20.207 17.2667 20.0411L9.75336 15.8672V23.0831C9.75336 23.5196 10.1616 23.8732 10.6657 23.8732H24.8531C25.3572 23.8732 25.7654 23.5196 25.7654 23.0831V15.8672L18.2521 20.0411Z" fill="white"/>
<defs>
<linearGradient id="paint0_linear_1344_40802" x1="9.77471" y1="-44.6367" x2="9.77471" y2="35.2229" gradientUnits="userSpaceOnUse">
<stop offset="0.0001" stop-color="#BD7BFF" stop-opacity="0.947917"/>
<stop offset="1" stop-color="#B6A0F4" stop-opacity="0"/>
</linearGradient>
</defs>
</svg>
