<svg width="35" height="35" viewBox="0 0 35 35" fill="none" xmlns="http://www.w3.org/2000/svg">
<circle cx="17.5" cy="17.5" r="17.5" fill="#0495A9"/>
<path d="M24.8741 18.5821H22.9241V16.7946H17.9905V15.5429H20.1425C20.5584 15.5429 20.7684 15.3252 20.7684 14.894V9.71147C20.7684 9.28024 20.5584 9.0625 20.1425 9.0625H15.1443C14.7284 9.0625 14.5184 9.28024 14.5184 9.71147V14.894C14.5184 15.3252 14.7284 15.5429 15.1443 15.5429H17.2839V16.7946H12.3625V18.5821H10.1259C9.71 18.5821 9.5 18.7998 9.5 19.231V24.4135C9.5 24.8448 9.71 25.0625 10.1259 25.0625H15.1241C15.54 25.0625 15.75 24.8448 15.75 24.4135V19.231C15.75 18.7998 15.54 18.5821 15.1241 18.5821H13.0609V17.435H22.2296V18.5821H19.8759C19.46 18.5821 19.25 18.7998 19.25 19.231V24.4135C19.25 24.8448 19.46 25.0625 19.8759 25.0625H24.8741C25.29 25.0625 25.5 24.8448 25.5 24.4135V19.231C25.5 18.7998 25.29 18.5821 24.8741 18.5821Z" fill="white"/>
</svg>
