<svg width="35" height="35" viewBox="0 0 36 36" fill="none" xmlns="http://www.w3.org/2000/svg">
<ellipse cx="18.3212" cy="18.1836" rx="17.4602" ry="17.5" fill="#529BF6"/>
<path fill-rule="evenodd" clip-rule="evenodd" d="M14.1649 1.22104C15.4593 0.921872 16.8084 0.763672 18.1948 0.763672C27.9516 0.763672 35.8611 8.59869 35.8611 18.2637C35.8611 26.4372 30.2043 33.302 22.5573 35.226C21.2629 35.5252 19.9137 35.6834 18.5273 35.6834C8.77049 35.6834 0.861023 27.8484 0.861023 18.1834C0.861023 10.0098 6.51782 3.14502 14.1649 1.22104Z" fill="url(#paint0_linear_1344_40762)" fill-opacity="0.75"/>
<rect x="11.3611" y="10.1836" width="14" height="16" rx="1" fill="white"/>
<path d="M21.3071 15.8342L20.1778 16.1538C20.1068 15.9656 20.0021 15.7827 19.8636 15.6051C19.7286 15.424 19.544 15.2749 19.3096 15.1577C19.0752 15.0405 18.7751 14.9819 18.4094 14.9819C17.9087 14.9819 17.4914 15.0973 17.1576 15.3281C16.8273 15.5554 16.6622 15.8448 16.6622 16.1964C16.6622 16.5089 16.7759 16.7557 17.0031 16.9368C17.2304 17.1179 17.5855 17.2688 18.0685 17.3896L19.283 17.6879C20.0145 17.8654 20.5596 18.1371 20.9183 18.5028C21.2769 18.8651 21.4563 19.332 21.4563 19.9038C21.4563 20.3725 21.3213 20.7915 21.0514 21.1609C20.7851 21.5302 20.4122 21.8214 19.9328 22.0344C19.4534 22.2475 18.8959 22.354 18.2602 22.354C17.4257 22.354 16.735 22.1729 16.1881 21.8107C15.6413 21.4485 15.295 20.9194 15.1494 20.2234L16.3426 19.9251C16.4563 20.3654 16.6711 20.6957 16.9871 20.9158C17.3068 21.136 17.724 21.2461 18.2389 21.2461C18.8249 21.2461 19.2901 21.1218 19.6345 20.8732C19.9825 20.6211 20.1565 20.3192 20.1565 19.9677C20.1565 19.6836 20.0571 19.4457 19.8582 19.2539C19.6594 19.0586 19.354 18.913 18.9421 18.8171L17.5784 18.4975C16.8291 18.32 16.2787 18.0447 15.9271 17.6719C15.5791 17.2955 15.4051 16.8249 15.4051 16.2603C15.4051 15.7987 15.5347 15.3903 15.794 15.0352C16.0568 14.68 16.4136 14.4013 16.8646 14.1989C17.3192 13.9964 17.8341 13.8952 18.4094 13.8952C19.219 13.8952 19.8547 14.0728 20.3163 14.4279C20.7815 14.783 21.1118 15.2518 21.3071 15.8342Z" fill="#388BFB"/>
<rect x="17.8611" y="12.541" width="1" height="1.5" fill="#388BFB"/>
<rect x="17.8611" y="22.1836" width="1" height="1.5" fill="#388BFB"/>
<defs>
<linearGradient id="paint0_linear_1344_40762" x1="35.8609" y1="0.914443" x2="15.3962" y2="34.0122" gradientUnits="userSpaceOnUse">
<stop offset="0.0001" stop-color="#438EFF" stop-opacity="0.947917"/>
<stop offset="1" stop-color="#1371FF" stop-opacity="0"/>
</linearGradient>
</defs>
</svg>
