<svg width="35" height="35" viewBox="0 0 36 36" fill="none" xmlns="http://www.w3.org/2000/svg">
<ellipse cx="17.9612" cy="17.5428" rx="17.4602" ry="17.4627" fill="#529BF6"/>
<path d="M24.6279 9.54297H11.2945C10.9409 9.54297 10.6018 9.68344 10.3517 9.93349C10.1017 10.1835 9.96121 10.5227 9.96121 10.8763V24.2096C9.96121 24.5633 10.1017 24.9024 10.3517 25.1524C10.6018 25.4025 10.9409 25.543 11.2945 25.543H24.6279C24.9815 25.543 25.3206 25.4025 25.5707 25.1524C25.8207 24.9024 25.9612 24.5633 25.9612 24.2096V10.8763C25.9612 10.5227 25.8207 10.1835 25.5707 9.93349C25.3206 9.68344 24.9815 9.54297 24.6279 9.54297ZM15.5373 19.9336L14.5943 20.8763L11.2945 17.5765L12.2373 16.6338L14.5943 14.2767L15.537 15.2194L13.1802 17.5765L15.5373 19.9336ZM17.2945 22.8763H15.9612L18.6279 12.2096H19.9612L17.2945 22.8763ZM21.3281 20.8763L20.3854 19.9336L22.7423 17.5765L20.3852 15.2194L21.3279 14.2767L23.6852 16.6336L24.6279 17.5765L21.3281 20.8763Z" fill="white"/>
</svg>
