<svg width="36" height="36" viewBox="0 0 36 36" fill="none" xmlns="http://www.w3.org/2000/svg">
<circle cx="18.342" cy="17.8098" r="17.4621" fill="#FB6800"/>
<path fill-rule="evenodd" clip-rule="evenodd" d="M18.2158 35.3462C27.9737 35.3462 35.884 27.5281 35.884 17.884C35.884 17.1524 35.8385 16.4314 35.7501 15.7234C34.6715 7.1007 27.2326 0.425781 18.2163 0.425781C8.45833 0.425781 0.547974 8.24385 0.547974 17.8879C0.547974 18.6195 0.593493 19.3406 0.681886 20.0485C1.76049 28.6713 9.19942 35.3462 18.2158 35.3462Z" fill="url(#paint0_linear_1344_40839)" fill-opacity="0.75"/>
<path d="M29.584 14.2088C29.5805 13.1996 29.1905 12.2329 28.4993 11.5206C27.8082 10.8082 26.8723 10.4082 25.8966 10.4082H20.1002L20.6349 12.588L25.6068 13.706C25.8332 13.7577 26.0367 13.8853 26.1858 14.0689C26.3349 14.2525 26.4212 14.4818 26.4314 14.7214C26.4314 14.7349 26.4314 20.2492 26.4314 20.2628C26.4203 20.501 26.3341 20.729 26.1858 20.9117C26.0375 21.0944 25.8355 21.2218 25.6106 21.2743L20.6349 22.3962L20.1002 24.5779H25.8966C26.8722 24.5774 27.8078 24.1772 28.4988 23.465C29.1898 22.7527 29.58 21.7863 29.584 20.7773V14.2088ZM11.4372 21.284C11.2131 21.2298 11.0123 21.1012 10.8654 20.9178C10.7186 20.7345 10.6337 20.5065 10.6239 20.2686C10.6239 20.2531 10.6239 14.7388 10.6239 14.7272C10.6336 14.4891 10.7184 14.2608 10.8652 14.0771C11.0121 13.8934 11.213 13.7645 11.4372 13.7098L16.4091 12.5919L16.9439 10.4121H11.1474C10.1717 10.4131 9.23611 10.8137 8.54515 11.5262C7.85418 12.2388 7.46407 13.2054 7.46011 14.2146V20.7908C7.46407 21.8004 7.85443 22.7673 8.54581 23.4799C9.23718 24.1925 10.1733 24.5929 11.1493 24.5934H16.9458L16.4129 22.4097L11.4372 21.284ZM16.4073 17.2126H20.6349V18.5531H16.4073V17.2126Z" fill="white"/>
<defs>
<linearGradient id="paint0_linear_1344_40839" x1="12.0471" y1="-27.0633" x2="12.0471" y2="35.347" gradientUnits="userSpaceOnUse">
<stop offset="0.0001" stop-color="#FA8028" stop-opacity="0.947917"/>
<stop offset="1" stop-color="#FFC9D3" stop-opacity="0"/>
<stop offset="1" stop-color="#FFDDBE" stop-opacity="0"/>
</linearGradient>
</defs>
</svg>
