<svg width="35" height="35" viewBox="0 0 36 36" fill="none" xmlns="http://www.w3.org/2000/svg">
<ellipse cx="17.7942" cy="18.2109" rx="17.4602" ry="17.5" fill="#529BF6"/>
<path fill-rule="evenodd" clip-rule="evenodd" d="M13.6379 1.24839C14.9323 0.949216 16.2814 0.791016 17.6678 0.791016C27.4246 0.791016 35.3341 8.62603 35.3341 18.291C35.3341 26.4646 29.6773 33.3294 22.0303 35.2534C20.7359 35.5526 19.3868 35.7108 18.0003 35.7108C8.24351 35.7108 0.334045 27.8757 0.334045 18.2108C0.334045 10.0372 5.99084 3.17236 13.6379 1.24839Z" fill="url(#paint0_linear_1344_40902)" fill-opacity="0.75"/>
<path fill-rule="evenodd" clip-rule="evenodd" d="M10.7018 11.1406C10.7018 10.5883 11.1495 10.1406 11.7018 10.1406H23.7018C24.2541 10.1406 24.7018 10.5883 24.7018 11.1406V25.1406C24.7018 25.6929 24.2541 26.1406 23.7018 26.1406H11.7018C11.1495 26.1406 10.7018 25.6929 10.7018 25.1406V11.1406ZM16.2939 17.6641L13.4282 14.2099L14.1978 13.5714L17.3089 17.3214L17.5543 17.6172L17.3316 17.9304L14.2204 22.3054L13.4055 21.7259L16.2939 17.6641ZM17.5463 22.0156H22.524V21.0156H17.5463V22.0156Z" fill="white"/>
<defs>
<linearGradient id="paint0_linear_1344_40902" x1="35.3335" y1="0.52118" x2="14.5706" y2="33.9197" gradientUnits="userSpaceOnUse">
<stop offset="0.0001" stop-color="#438EFF" stop-opacity="0.947917"/>
<stop offset="1" stop-color="#1371FF" stop-opacity="0"/>
</linearGradient>
</defs>
</svg>
