<svg width="36" height="36" viewBox="0 0 36 36" fill="none" xmlns="http://www.w3.org/2000/svg">
<circle cx="17.9612" cy="17.8089" r="17.4612" fill="#F8981D"/>
<path d="M19.9085 14.9809C20.7992 14.6385 21.3056 13.7736 21.3056 12.6744C21.3056 11.8095 21.0786 11.0887 20.4149 10.5661C19.8561 9.93543 19.0702 9.70117 18.1795 9.70117H14.2325C13.988 9.70117 13.761 9.93543 13.761 10.1877V20.7652C13.761 21.0535 13.988 21.2517 14.2325 21.2517H18.7558C19.7338 21.2517 20.5721 20.9093 21.1834 20.2426C21.8296 19.5759 22.1614 18.801 22.1614 17.792C22.1439 16.3324 21.3056 15.2332 19.9085 14.9809ZM16.0838 12.0978H17.673C18.424 12.0978 18.9305 12.6203 18.9305 13.3051C18.9305 13.9898 18.424 14.5124 17.673 14.5124H16.0838V12.0978ZM18.3192 19.3056H16.0838V16.4225H18.3192C19.2099 16.4225 19.8561 16.9991 19.8561 17.81C19.8561 18.6929 19.2099 19.3056 18.3192 19.3056Z" fill="white"/>
<path d="M24.5487 23.575C24.4792 23.5565 24.3951 23.5668 24.2982 23.6017C23.0018 24.1816 21.741 24.5949 20.5161 24.8396C17.8705 25.3659 15.2923 25.0904 12.7835 24.015C12.0869 23.7148 11.1187 23.209 9.87904 22.4934C9.84536 22.4687 9.80958 22.4543 9.76749 22.4523C9.7254 22.4502 9.68962 22.4544 9.65594 22.4708C9.62227 22.4872 9.59701 22.5078 9.57807 22.5345C9.55913 22.5613 9.55492 22.5983 9.56965 22.6456C9.58228 22.6908 9.61385 22.7422 9.66647 22.7977C9.88535 23.0486 10.1569 23.3159 10.4789 23.5997C10.8009 23.8834 11.2281 24.2042 11.7606 24.562C12.2931 24.9197 12.8509 25.2385 13.4296 25.516C14.0105 25.7936 14.684 26.028 15.4522 26.2172C16.2205 26.4064 16.9887 26.501 17.7548 26.501C18.5167 26.501 19.2575 26.4249 19.9752 26.2768C20.695 26.1267 21.3012 25.9499 21.7958 25.7443C22.2883 25.5407 22.7429 25.3125 23.1596 25.0657C23.5763 24.819 23.8836 24.6093 24.0836 24.4427C24.2835 24.2741 24.4266 24.1425 24.5087 24.0438C24.6055 23.9266 24.6539 23.8258 24.6539 23.7374C24.656 23.6449 24.6182 23.5914 24.5487 23.575ZM26.3019 22.5469C26.2114 22.4358 25.9673 22.3639 25.5674 22.3269C25.1675 22.2899 24.8202 22.2919 24.5213 22.3351C24.1993 22.3721 23.8668 22.4626 23.5258 22.6106C23.1828 22.7566 23.0333 22.88 23.0712 22.9766L23.0859 23.0034L23.1049 23.0178L23.1344 23.0219H23.2312C23.248 23.0219 23.2691 23.0198 23.2985 23.0178C23.328 23.0157 23.3553 23.0116 23.3806 23.0095C23.4059 23.0075 23.4416 23.0034 23.4879 23.0013C23.5321 22.9992 23.5742 22.9931 23.6142 22.9869C23.6205 22.9869 23.6921 22.9807 23.831 22.9684C23.9699 22.9561 24.0709 22.9478 24.132 22.9417C24.193 22.9355 24.2961 22.9293 24.4372 22.9232C24.5782 22.917 24.6918 22.917 24.776 22.9232C24.8602 22.9293 24.9549 22.9376 25.0622 22.9458C25.1696 22.954 25.2559 22.9725 25.3232 23.0013C25.3906 23.028 25.4411 23.063 25.4727 23.1062C25.5821 23.2419 25.5611 23.5421 25.4095 24.0088C25.258 24.4756 25.1149 24.8478 24.9802 25.1233C24.9212 25.2405 24.9212 25.3125 24.9802 25.3433C25.0391 25.3742 25.1212 25.3454 25.2306 25.2611C25.559 25.0102 25.8326 24.6319 26.0535 24.124C26.1819 23.8238 26.2745 23.5112 26.3293 23.1843C26.3798 22.8574 26.3714 22.6456 26.3019 22.5469Z" fill="white"/>
</svg>
