<svg width="36" height="36" viewBox="0 0 36 36" fill="none" xmlns="http://www.w3.org/2000/svg">
<ellipse cx="18.0874" cy="17.5418" rx="17.4599" ry="17.4617" fill="#66C3D8"/>
<path fill-rule="evenodd" clip-rule="evenodd" d="M35.6275 17.6209C35.6275 17.6212 35.6275 17.6216 35.6275 17.6219C35.6275 27.2657 27.7182 35.0836 17.9615 35.0836C8.20486 35.0836 0.295532 27.2657 0.295532 17.6219C0.295532 7.97804 8.20486 0.160156 17.9615 0.160156C27.7178 0.160156 35.627 7.97751 35.6275 17.6209Z" fill="#66C3D8"/>
<path d="M22.8107 9.55664C22.8546 9.55664 22.8969 9.57092 22.9316 9.59709L26.3332 12.1472C26.3602 12.1674 26.3822 12.1941 26.3973 12.225C26.4125 12.2559 26.4204 12.2901 26.4204 12.3249C26.4204 12.3597 26.4125 12.394 26.3973 12.4249C26.3822 12.4558 26.3602 12.4824 26.3332 12.5026L22.9324 15.0527C22.9013 15.0763 22.8646 15.0904 22.8264 15.0934C22.7882 15.0964 22.7499 15.0883 22.7158 15.0699C22.6817 15.0515 22.6531 15.0236 22.6331 14.9892C22.6132 14.9548 22.6028 14.9153 22.6029 14.8751L22.6022 13.1261H18.3867C18.2658 13.1261 18.1343 13.2649 18.1071 13.4774L18.1018 13.5607V22.2098C18.1018 22.4398 18.2189 22.6048 18.3406 22.6381L18.386 22.6445H22.6029V20.9034C22.6029 20.8633 22.6134 20.8239 22.6332 20.7897C22.6531 20.7554 22.6816 20.7276 22.7156 20.7092C22.7496 20.6908 22.7877 20.6827 22.8258 20.6856C22.8639 20.6885 22.9006 20.7024 22.9316 20.7257L26.3332 23.2759C26.3602 23.296 26.3822 23.3227 26.3973 23.3536C26.4125 23.3845 26.4204 23.4188 26.4204 23.4535C26.4204 23.4883 26.4125 23.5226 26.3973 23.5535C26.3822 23.5844 26.3602 23.611 26.3332 23.6312L22.9324 26.1814C22.9013 26.2049 22.8646 26.219 22.8264 26.222C22.7882 26.2251 22.7499 26.2169 22.7158 26.1985C22.6817 26.1802 22.6531 26.1522 22.6331 26.1178C22.6132 26.0834 22.6028 26.0439 22.6029 26.0037L22.6022 24.2309H18.3867C17.4141 24.2309 16.6531 23.379 16.5941 22.3399L16.5903 22.2098L16.5896 18.6785H14.1607C13.9824 19.2079 13.6315 19.6542 13.1701 19.9384C12.7086 20.2225 12.1663 20.3263 11.639 20.2314C11.1117 20.1365 10.6333 19.8489 10.2884 19.4196C9.94357 18.9903 9.75443 18.4468 9.75443 17.8853C9.75443 17.3237 9.94357 16.7802 10.2884 16.3509C10.6333 15.9216 11.1117 15.634 11.639 15.5391C12.1663 15.4442 12.7086 15.548 13.1701 15.8322C13.6315 16.1163 13.9824 16.5626 14.1607 17.0921H16.5896V13.5607C16.5896 12.5081 17.3121 11.6142 18.2665 11.5444L18.386 11.5396H22.6014L22.6029 9.77477C22.6029 9.6542 22.6959 9.55664 22.8107 9.55664Z" fill="white"/>
</svg>
