<svg width="36" height="36" viewBox="0 0 36 36" fill="none" xmlns="http://www.w3.org/2000/svg">
<ellipse cx="18.216" cy="17.5418" rx="17.4599" ry="17.4617" fill="#8B8EED"/>
<path d="M22.2662 8.91602V13.2493H26.8372L22.2662 8.91602ZM21.1231 8.91602H13.1231C12.5169 8.91612 11.9355 9.14444 11.5068 9.55079C11.0782 9.95713 10.8373 10.5082 10.8372 11.0829V24.0825C10.8373 24.6571 11.0782 25.2082 11.5068 25.6146C11.9355 26.0209 12.5169 26.2492 13.1231 26.2493H24.5509C25.1572 26.2493 25.7387 26.0211 26.1674 25.6147C26.5962 25.2084 26.8371 24.6572 26.8372 24.0825V14.3326H21.1231V8.91602ZM22.2662 22.9993H15.409V21.916H22.2662V22.9993ZM22.2662 19.7495H15.409V18.6663H22.2662V19.7495ZM22.2662 15.4158V16.4991H15.409V15.4158H22.2662Z" fill="white"/>
</svg>
