<svg width="36" height="36" viewBox="0 0 36 36" fill="none" xmlns="http://www.w3.org/2000/svg">
<circle cx="17.9615" cy="17.9622" r="17.4622" fill="#F8981D"/>
<path d="M20.0261 13.5898C19.9764 13.1246 19.7669 12.7624 19.3975 12.5032C19.0318 12.244 18.5559 12.1143 17.97 12.1143C17.5581 12.1143 17.2047 12.1765 16.91 12.3008C16.6152 12.4251 16.3897 12.5937 16.2335 12.8068C16.0772 13.0199 15.9973 13.2631 15.9938 13.5366C15.9938 13.7638 16.0453 13.9609 16.1483 14.1278C16.2548 14.2947 16.3986 14.4368 16.5797 14.554C16.7608 14.6676 16.9615 14.7635 17.1816 14.8416C17.4018 14.9197 17.6238 14.9854 17.8475 15.0387L18.8702 15.2944C19.2821 15.3903 19.6781 15.5199 20.0581 15.6832C20.4416 15.8466 20.7843 16.0526 21.0861 16.3011C21.3915 16.5497 21.633 16.8498 21.8105 17.2013C21.9881 17.5529 22.0769 17.9648 22.0769 18.4371C22.0769 19.0763 21.9135 19.6392 21.5868 20.1257C21.2601 20.6087 20.7878 20.9869 20.1699 21.2603C19.5556 21.5302 18.8116 21.6651 17.938 21.6651C17.0893 21.6651 16.3525 21.5337 15.7275 21.271C15.106 21.0082 14.6195 20.6246 14.2679 20.1204C13.9199 19.6161 13.7317 19.0018 13.7033 18.2773H15.6475C15.676 18.6573 15.7931 18.9734 15.9991 19.2255C16.2051 19.4776 16.4732 19.6658 16.8034 19.7901C17.1373 19.9144 17.5101 19.9766 17.9221 19.9766C18.3517 19.9766 18.7282 19.9126 19.0513 19.7848C19.378 19.6534 19.6337 19.4723 19.8184 19.2415C20.003 19.0071 20.0971 18.7337 20.1007 18.4212C20.0971 18.1371 20.0137 17.9027 19.8503 17.718C19.687 17.5298 19.4579 17.3736 19.1632 17.2493C18.872 17.1214 18.5311 17.0078 18.1404 16.9084L16.8993 16.5888C16.0009 16.358 15.2907 16.0082 14.7686 15.5394C14.2502 15.0671 13.9909 14.4403 13.9909 13.6591C13.9909 13.0163 14.165 12.4535 14.513 11.9705C14.8645 11.4876 15.3422 11.1129 15.9458 10.8466C16.5495 10.5767 17.2331 10.4418 17.9966 10.4418C18.7708 10.4418 19.449 10.5767 20.0314 10.8466C20.6174 11.1129 21.0772 11.484 21.411 11.9599C21.7449 12.4322 21.9171 12.9755 21.9277 13.5898H20.0261Z" fill="white"/>
<path d="M20.0261 13.5898L19.7278 13.6217L19.7565 13.8898H20.0261V13.5898ZM19.3975 12.5032L19.2241 12.748L19.2252 12.7487L19.3975 12.5032ZM16.91 12.3008L17.0265 12.5772L17.0265 12.5772L16.91 12.3008ZM16.2335 12.8068L15.9916 12.6294L15.9916 12.6294L16.2335 12.8068ZM15.9938 13.5366L15.6938 13.5327V13.5366H15.9938ZM16.1483 14.1278L15.8929 14.2854L15.8954 14.2893L16.1483 14.1278ZM16.5797 14.554L16.4167 14.8059L16.4203 14.8081L16.5797 14.554ZM17.1816 14.8416L17.0813 15.1243L17.0813 15.1243L17.1816 14.8416ZM17.8475 15.0387L17.9202 14.7476L17.917 14.7469L17.8475 15.0387ZM18.8702 15.2944L18.7974 15.5855L18.8022 15.5866L18.8702 15.2944ZM20.0581 15.6832L19.9396 15.9589L19.9405 15.9592L20.0581 15.6832ZM21.0861 16.3011L20.8954 16.5327L20.8967 16.5338L21.0861 16.3011ZM21.5868 20.1257L21.8353 20.2938L21.8359 20.293L21.5868 20.1257ZM20.1699 21.2603L20.2906 21.535L20.2913 21.5346L20.1699 21.2603ZM15.7275 21.271L15.6106 21.5473L15.6112 21.5475L15.7275 21.271ZM14.2679 20.1204L14.021 20.2908L14.0218 20.292L14.2679 20.1204ZM13.7033 18.2773V17.9773H13.3913L13.4035 18.2891L13.7033 18.2773ZM15.6475 18.2773L15.9467 18.255L15.926 17.9773H15.6475V18.2773ZM15.9991 19.2255L16.2314 19.0357L16.2314 19.0357L15.9991 19.2255ZM16.8034 19.7901L16.6978 20.0709L16.6988 20.0713L16.8034 19.7901ZM19.0513 19.7848L19.1617 20.0638L19.1633 20.0631L19.0513 19.7848ZM19.8184 19.2415L20.0526 19.4289L20.054 19.4271L19.8184 19.2415ZM20.1007 18.4212L20.4007 18.4246L20.4007 18.4174L20.1007 18.4212ZM19.8503 17.718L19.6237 17.9147L19.6256 17.9168L19.8503 17.718ZM19.1632 17.2493L19.0426 17.524L19.0466 17.5257L19.1632 17.2493ZM18.1404 16.9084L18.0656 17.1989L18.0664 17.1991L18.1404 16.9084ZM16.8993 16.5888L16.9741 16.2983L16.974 16.2982L16.8993 16.5888ZM14.7686 15.5394L14.5666 15.7612L14.5682 15.7626L14.7686 15.5394ZM14.513 11.9705L14.2704 11.794L14.2696 11.7951L14.513 11.9705ZM15.9458 10.8466L16.0669 11.1211L16.0683 11.1205L15.9458 10.8466ZM20.0314 10.8466L19.9053 11.1188L19.9073 11.1197L20.0314 10.8466ZM21.411 11.9599L21.1654 12.1322L21.1661 12.133L21.411 11.9599ZM21.9277 13.5898V13.8898H22.233L22.2277 13.5846L21.9277 13.5898ZM20.3244 13.558C20.2659 13.0103 20.013 12.5687 19.5699 12.2576L19.2252 12.7487C19.5207 12.9562 19.6869 13.239 19.7278 13.6217L20.3244 13.558ZM19.571 12.2584C19.141 11.9537 18.5991 11.8143 17.97 11.8143V12.4143C18.5127 12.4143 18.9226 12.5343 19.2241 12.748L19.571 12.2584ZM17.97 11.8143C17.5291 11.8143 17.134 11.8807 16.7934 12.0244L17.0265 12.5772C17.2754 12.4723 17.5871 12.4143 17.97 12.4143V11.8143ZM16.7934 12.0244C16.4592 12.1653 16.186 12.3642 15.9916 12.6294L16.4754 12.9842C16.5934 12.8233 16.7712 12.6849 17.0265 12.5772L16.7934 12.0244ZM15.9916 12.6294C15.797 12.8947 15.6981 13.1991 15.6938 13.5327L16.2938 13.5405C16.2965 13.3272 16.3575 13.1451 16.4754 12.9842L15.9916 12.6294ZM15.6938 13.5366C15.6938 13.8105 15.7564 14.064 15.8929 14.2854L16.4036 13.9703C16.3342 13.8579 16.2938 13.7172 16.2938 13.5366H15.6938ZM15.8954 14.2893C16.0271 14.4955 16.2028 14.6674 16.4167 14.8058L16.7427 14.3021C16.5944 14.2062 16.4825 14.0939 16.4011 13.9664L15.8954 14.2893ZM16.4203 14.8081C16.6216 14.9344 16.8423 15.0395 17.0813 15.1243L17.282 14.5589C17.0806 14.4874 16.9001 14.4008 16.7392 14.2999L16.4203 14.8081ZM17.0813 15.1243C17.3114 15.206 17.5437 15.2748 17.778 15.3305L17.917 14.7469C17.7038 14.6961 17.4922 14.6335 17.282 14.5589L17.0813 15.1243ZM17.7747 15.3298L18.7974 15.5854L18.943 15.0033L17.9202 14.7477L17.7747 15.3298ZM18.8022 15.5866C19.1972 15.6785 19.5763 15.8027 19.9396 15.9588L20.1765 15.4076C19.7799 15.2371 19.367 15.102 18.9382 15.0022L18.8022 15.5866ZM19.9405 15.9592C20.2994 16.1121 20.6171 16.3035 20.8954 16.5327L21.2768 16.0696C20.9514 15.8016 20.5838 15.5811 20.1756 15.4072L19.9405 15.9592ZM20.8967 16.5338C21.1694 16.7558 21.3842 17.0226 21.5428 17.3366L22.0783 17.0661C21.8818 16.6769 21.6136 16.3437 21.2755 16.0685L20.8967 16.5338ZM21.5428 17.3366C21.6953 17.6387 21.7769 18.0026 21.7769 18.4371H22.3769C22.3769 17.9271 22.2809 17.4672 22.0783 17.0661L21.5428 17.3366ZM21.7769 18.4371C21.7769 19.0224 21.6283 19.5259 21.3378 19.9585L21.8359 20.293C22.1988 19.7525 22.3769 19.1303 22.3769 18.4371H21.7769ZM21.3383 19.9576C21.0479 20.3869 20.6233 20.7316 20.0485 20.986L20.2913 21.5346C20.9524 21.2421 21.4723 20.8304 21.8353 20.2938L21.3383 19.9576ZM20.0493 20.9856C19.4826 21.2346 18.7821 21.3651 17.938 21.3651V21.9651C18.8412 21.9651 19.6286 21.8258 20.2906 21.535L20.0493 20.9856ZM17.938 21.3651C17.1195 21.3651 16.4239 21.2383 15.8437 20.9944L15.6112 21.5475C16.281 21.8291 17.0591 21.9651 17.938 21.9651V21.3651ZM15.8443 20.9946C15.2697 20.7517 14.8301 20.4022 14.514 19.9488L14.0218 20.292C14.4089 20.8471 14.9423 21.2647 15.6106 21.5473L15.8443 20.9946ZM14.5148 19.95C14.2047 19.5005 14.0297 18.9438 14.0031 18.2656L13.4035 18.2891C13.4338 19.0598 13.6352 19.7317 14.021 20.2908L14.5148 19.95ZM13.7033 18.5773H15.6475V17.9773H13.7033V18.5773ZM15.3484 18.2997C15.3806 18.7303 15.5156 19.1078 15.7668 19.4153L16.2314 19.0357C16.0707 18.8389 15.9713 18.5844 15.9467 18.255L15.3484 18.2997ZM15.7668 19.4153C16.009 19.7118 16.3223 19.9296 16.6978 20.0709L16.9091 19.5094C16.6241 19.4021 16.4012 19.2435 16.2314 19.0357L15.7668 19.4153ZM16.6988 20.0713C17.0709 20.2098 17.4799 20.2766 17.9221 20.2766V19.6766C17.5404 19.6766 17.2036 19.619 16.9081 19.509L16.6988 20.0713ZM17.9221 20.2766C18.3809 20.2766 18.7962 20.2084 19.1617 20.0638L18.941 19.5058C18.6602 19.6169 18.3226 19.6766 17.9221 19.6766V20.2766ZM19.1633 20.0631C19.5287 19.9162 19.83 19.7071 20.0526 19.4289L19.5841 19.0541C19.4374 19.2375 19.2273 19.3907 18.9394 19.5065L19.1633 20.0631ZM20.054 19.4271C20.2817 19.1382 20.3964 18.7999 20.4007 18.4246L19.8007 18.4178C19.7979 18.6674 19.7244 18.876 19.5827 19.0558L20.054 19.4271ZM20.4007 18.4174C20.3963 18.073 20.2932 17.7659 20.075 17.5193L19.6256 17.9168C19.7341 18.0395 19.7979 18.2011 19.8007 18.4249L20.4007 18.4174ZM20.0769 17.5214C19.8762 17.2901 19.6052 17.1101 19.2797 16.9729L19.0466 17.5257C19.3107 17.6371 19.4978 17.7695 19.6238 17.9147L20.0769 17.5214ZM19.2838 16.9746C18.9742 16.8387 18.617 16.7201 18.2145 16.6177L18.0664 17.1991C18.4451 17.2955 18.7698 17.4042 19.0426 17.524L19.2838 16.9746ZM18.2153 16.6179L16.9741 16.2983L16.8245 16.8793L18.0656 17.1989L18.2153 16.6179ZM16.974 16.2982C16.1078 16.0757 15.4455 15.744 14.9691 15.3162L14.5682 15.7626C15.1358 16.2723 15.894 16.6402 16.8247 16.8793L16.974 16.2982ZM14.9707 15.3176C14.5221 14.909 14.2909 14.3666 14.2909 13.6591H13.6909C13.6909 14.5141 13.9783 15.2252 14.5666 15.7612L14.9707 15.3176ZM14.2909 13.6591C14.2909 13.074 14.4481 12.5737 14.7564 12.1459L14.2696 11.7951C13.8818 12.3333 13.6909 12.9587 13.6909 13.6591H14.2909ZM14.7555 12.1471C15.0727 11.7113 15.5065 11.3683 16.0669 11.1211L15.8248 10.5721C15.1778 10.8575 14.6563 11.2639 14.2704 11.794L14.7555 12.1471ZM16.0683 11.1205C16.6279 10.8703 17.2688 10.7418 17.9966 10.7418V10.1418C17.1974 10.1418 16.4711 10.2831 15.8234 10.5727L16.0683 11.1205ZM17.9966 10.7418C18.736 10.7418 19.3697 10.8706 19.9053 11.1188L20.1576 10.5744C19.5284 10.2828 18.8055 10.1418 17.9966 10.1418V10.7418ZM19.9073 11.1197C20.4498 11.3663 20.8656 11.7047 21.1654 12.1322L21.6566 11.7876C21.2889 11.2633 20.7849 10.8595 20.1556 10.5735L19.9073 11.1197ZM21.1661 12.133C21.4629 12.553 21.6181 13.037 21.6278 13.595L22.2277 13.5846C22.2161 12.914 22.0268 12.3114 21.656 11.7867L21.1661 12.133ZM21.9277 13.2898H20.0261V13.8898H21.9277V13.2898Z" fill="white"/>
<path d="M24.7702 24.4384C24.7013 24.4201 24.6177 24.4303 24.5216 24.465C23.2349 25.0405 21.9837 25.4507 20.768 25.6935C18.1423 26.2159 15.5834 25.9425 13.0935 24.8752C12.4021 24.5772 11.4412 24.0752 10.2109 23.365C10.1775 23.3405 10.142 23.3262 10.1002 23.3242C10.0584 23.3222 10.0229 23.3262 9.98949 23.3426C9.95606 23.3589 9.931 23.3793 9.9122 23.4058C9.8934 23.4324 9.88922 23.4691 9.90384 23.516C9.91638 23.5609 9.94771 23.6119 9.99993 23.667C10.2172 23.916 10.4866 24.1813 10.8062 24.4629C11.1258 24.7446 11.5499 25.0629 12.0783 25.418C12.6068 25.7731 13.1604 26.0894 13.7348 26.3649C14.3113 26.6404 14.9798 26.8731 15.7422 27.0608C16.5046 27.2485 17.267 27.3424 18.0274 27.3424C18.7835 27.3424 19.5188 27.2669 20.2311 27.12C20.9455 26.971 21.5471 26.7955 22.038 26.5914C22.5268 26.3894 22.978 26.1629 23.3916 25.918C23.8051 25.6731 24.1101 25.4649 24.3086 25.2996C24.507 25.1323 24.649 25.0017 24.7305 24.9037C24.8266 24.7874 24.8746 24.6874 24.8746 24.5997C24.8767 24.5078 24.8391 24.4548 24.7702 24.4384ZM26.5102 23.4181C26.4204 23.3079 26.1781 23.2364 25.7812 23.1997C25.3843 23.163 25.0397 23.165 24.743 23.2079C24.4234 23.2446 24.0934 23.3344 23.755 23.4813C23.4145 23.6262 23.2662 23.7487 23.3038 23.8446L23.3184 23.8711L23.3372 23.8854L23.3665 23.8895H23.4626C23.4793 23.8895 23.5002 23.8874 23.5294 23.8854C23.5587 23.8834 23.5858 23.8793 23.6109 23.8772C23.6359 23.8752 23.6715 23.8711 23.7174 23.8691C23.7613 23.867 23.8031 23.8609 23.8427 23.8548C23.849 23.8548 23.92 23.8487 24.0579 23.8364C24.1958 23.8242 24.296 23.816 24.3566 23.8099C24.4172 23.8038 24.5195 23.7977 24.6595 23.7915C24.7994 23.7854 24.9122 23.7854 24.9958 23.7915C25.0793 23.7977 25.1733 23.8058 25.2799 23.814C25.3864 23.8221 25.472 23.8405 25.5389 23.8691C25.6057 23.8956 25.6559 23.9303 25.6872 23.9732C25.7958 24.1078 25.7749 24.4058 25.6245 24.869C25.4741 25.3323 25.3321 25.7017 25.1984 25.9751C25.1399 26.0914 25.1399 26.1629 25.1984 26.1935C25.2569 26.2241 25.3384 26.1955 25.447 26.1119C25.7728 25.8629 26.0444 25.4874 26.2637 24.9833C26.3911 24.6854 26.4831 24.3752 26.5374 24.0507C26.5875 23.7262 26.5791 23.516 26.5102 23.4181Z" fill="white"/>
</svg>
