<?xml version="1.0" standalone="no"?><!DOCTYPE svg PUBLIC "-//W3C//DTD SVG 1.1//EN" "http://www.w3.org/Graphics/SVG/1.1/DTD/svg11.dtd"><svg t="1639044507266" class="icon" viewBox="0 0 1024 1024" version="1.1" xmlns="http://www.w3.org/2000/svg" p-id="2455" xmlns:xlink="http://www.w3.org/1999/xlink" width="200" height="200"><defs><style type="text/css"></style></defs><path d="M1024 544c0 265.088-214.944 480-480 480h-64C214.912 1024 0 809.088 0 544v-64C0 214.912 214.912 0 480 0h64c265.056 0 480 214.912 480 480v64z" p-id="2456"></path><path d="M640.32 175.904c14.56 0 26.304 11.776 26.304 26.304v25.472h100.32c29.056 0 52.64 23.584 52.64 52.64v180.032a26.272 26.272 0 0 1-52.608 0.448V430.752H222.624a26.048 26.048 0 0 1-8.224-1.312v351.584h207.2a26.304 26.304 0 1 1 0 52.608H214.4a52.64 52.64 0 0 1-52.64-52.64V280.32c0-29.056 23.552-52.64 52.64-52.64h105.248v-25.472a26.304 26.304 0 1 1 52.608 0v25.472h241.728v-25.472a26.336 26.336 0 0 1 26.336-26.304z m-218.72 463.744a26.272 26.272 0 0 1 0.416 52.608H326.208a26.304 26.304 0 1 1 0-52.608h95.392z m-95.392-70.72a26.272 26.272 0 1 1 0-52.608h123.328a26.272 26.272 0 0 1 0.416 52.608h-123.744zM319.648 280.32H214.4v99.168a25.6 25.6 0 0 1 8.224-1.312h544.32V280.32h-100.32v25.472a26.272 26.272 0 1 1-52.608 0V280.32h-241.728v25.472a26.304 26.304 0 0 1-52.64 0.032V280.32z" fill="#FFFFFF" p-id="2457"></path><path d="M831.552 795.424c3.008-6.112 6.112-10.72 9.184-16.864 1.504-1.568 1.504-3.104 1.504-4.64 1.568-4.608 4.64-9.216 6.176-13.824 1.504-1.568 1.504-3.072 1.504-6.144 1.568-4.608 3.072-9.216 4.64-12.288 0-1.536 1.504-4.64 1.504-6.144 1.568-4.608 1.568-9.184 3.136-13.824 0-1.536 1.504-4.608 1.504-6.08 1.568-6.144 1.568-13.856 1.568-20 0-101.344-82.944-184.256-184.256-184.256-101.376 0-184.288 82.912-184.288 184.256 0 6.144 0 13.856 1.536 20 0 1.504 0 4.576 1.504 6.08 0 4.64 1.568 9.216 1.568 13.824 0 1.536 1.536 4.64 1.536 6.144 1.504 4.64 3.04 9.216 4.576 12.288 0 1.568 1.536 3.104 1.536 6.144 1.536 4.608 3.072 9.216 6.144 13.824 0 1.536 1.568 3.072 1.568 4.64 3.04 6.144 6.08 10.752 9.184 16.864 32.224 50.688 89.056 84.448 153.536 84.448s121.344-33.76 155.136-84.448c-1.536 0-1.536 0 0 0z m-155.104-196.544a68.16 68.16 0 0 1 67.552 67.552c0 36.864-30.688 67.584-67.552 67.584s-67.552-30.72-67.552-67.584a68.096 68.096 0 0 1 67.552-67.552z m-112.064 211.904c19.936-44.512 62.944-73.728 112.064-73.728s92.128 29.216 112.064 73.728c-29.12 27.648-69.056 46.048-112.064 46.048-43.008-1.504-82.944-18.4-112.064-46.048z" fill="#FFFFFF" p-id="2458"></path></svg>