<svg width="18" height="18" viewBox="0 0 18 18" fill="none"
    xmlns="http://www.w3.org/2000/svg">
    <path d="M12.0605 5.02857L8.0555 9.60571L8.9395 10.212L9.4695 11.2223L13.4745 6.64514L12.0605 5.02857ZM12.768 4.22057L14.182 5.83657L14.5355 5.43257C14.6292 5.32541 14.6819 5.18009 14.6819 5.02857C14.6819 4.87705 14.6292 4.73173 14.5355 4.62457L13.8285 3.81714C13.7347 3.71002 13.6076 3.64984 13.475 3.64984C13.3424 3.64984 13.2153 3.71002 13.1215 3.81714L12.768 4.22057ZM7.348 10.4143L7.111 10.6857V12.3017H8.525L8.7625 12.0303L8.2325 11.0206L7.348 10.4143ZM14.1825 2.60457L15.5965 4.22057C15.784 4.43489 15.8893 4.72553 15.8893 5.02857C15.8893 5.33162 15.784 5.62225 15.5965 5.83657L8.94 13.4446H6.1115V10.212L12.768 2.60457C12.9555 2.39032 13.2098 2.26996 13.475 2.26996C13.7402 2.26996 13.995 2.39032 14.1825 2.60457ZM10 1.57143C10 1.72298 9.94732 1.86833 9.85355 1.97549C9.75979 2.08265 9.63261 2.14286 9.5 2.14286H3.5C3.2235 2.14286 3 2.39657 3 2.70971V15.2903C3 15.5971 3.224 15.8571 3.5 15.8571H14.5C14.7765 15.8571 15 15.6034 15 15.2903V10.7143C15 10.5627 15.0527 10.4174 15.1464 10.3102C15.2402 10.2031 15.3674 10.1429 15.5 10.1429C15.6326 10.1429 15.7598 10.2031 15.8536 10.3102C15.9473 10.4174 16 10.5627 16 10.7143V15.8543C16 16.4869 15.55 17 15.0045 17H2.995C2.4455 17 2 16.4874 2 15.8543V2.14571C2 1.51314 2.45 1 2.9955 1H9.5C9.63261 1 9.75979 1.0602 9.85355 1.16737C9.94732 1.27453 10 1.41988 10 1.57143Z" fill="#2F54EB"/>
</svg>
