<?xml version="1.0" standalone="no"?><!DOCTYPE svg PUBLIC "-//W3C//DTD SVG 1.1//EN" "http://www.w3.org/Graphics/SVG/1.1/DTD/svg11.dtd"><svg t="1640916550327" class="icon" viewBox="0 0 1024 1024" version="1.1" xmlns="http://www.w3.org/2000/svg" p-id="1267" xmlns:xlink="http://www.w3.org/1999/xlink" width="200" height="200"><defs><style type="text/css"></style></defs><path d="M479.11538427 108.73076943A278.65384629 278.65384629 0 0 0 229.88461573 356.23076943a275.19230742 275.19230742 0 0 0 100.38461484 235.38461484 84.80769258 84.80769258 0 0 1 32.88461572 67.5 69.23076943 69.23076943 0 0 0 70.96153799 69.23076944h155.76923145a69.23076943 69.23076943 0 0 0 69.23076854-69.23076944 84.80769258 84.80769258 0 0 1 32.88461573-67.5 275.19230742 275.19230742 0 0 0 102.11538427-211.15384541C795.84615371 219.49999999 650.46153887 91.42307685 479.11538427 108.73076943zM633.1538463 809.69230742H390.8461537a27.69230742 27.69230742 0 0 0-27.69230742 25.96153887 81.34615371 81.34615371 0 0 0 81.34615373 81.34615371h135a81.34615371 81.34615371 0 0 0 81.3461537-81.34615372 27.69230742 27.69230742 0 0 0-27.69230743-25.96153886z" fill="#1f78d1" p-id="1268"></path></svg>