<?xml version="1.0" standalone="no"?><!DOCTYPE svg PUBLIC "-//W3C//DTD SVG 1.1//EN" "http://www.w3.org/Graphics/SVG/1.1/DTD/svg11.dtd"><svg t="1646019826297" class="icon" viewBox="0 0 1024 1024" version="1.1" xmlns="http://www.w3.org/2000/svg" p-id="7779" xmlns:xlink="http://www.w3.org/1999/xlink" width="200" height="200"><defs><style type="text/css"></style></defs><path d="M92.284933 972.160282l393.418903-362.290989c6.818639-5.494047 14.901661-8.384066 23.421197-8.384066 8.655005 0 17.325062 3.025489 23.120153 7.526091l389.159136 350.068617c14.736087-13.697486 28.629252-28.192738 41.212877-43.831956L570.658357 562.6807c-35.447891-27.78633-86.39953-28.990504-123.939674 1.294488L50.801117 928.524004C58.357313 939.602411 67.945553 949.702425 75.260914 957.017786 80.664648 962.406468 86.580156 967.162958 92.284933 972.160282z" p-id="7780"></path><path d="M981.688314 446.899309l0.150522 0-0.82787-0.82787c-3.085697-4.064089-6.698221-7.646509-10.732206-10.807467L577.71783 55.738233c-34.078142-34.078142-93.669734-34.123299-127.793032 0L57.409025 432.298692C48.919594 440.201088 30.254888 461.545083 30.254888 482.497722l0 451.159077c0 33.084698 27.108981 60.208731 60.208731 60.208731l842.982449 0c33.09975 0 60.208731-27.124034 60.208731-60.208731L993.654799 482.497722C993.654799 469.131383 989.093988 456.893959 981.688314 446.899309zM933.446068 933.641746 90.463619 933.641746 90.463619 482.497722l36.095134-35.598412L127.943554 446.899309 492.492371 98.305806c5.704777-5.674673 13.276025-8.820579 21.313891-8.820579 8.06797 0 15.639218 3.145906 21.343995 8.820579l339.968602 323.95308-0.918183 0 59.245392 60.223784L933.446068 933.641746z" p-id="7781"></path><path d="M329.417022 743.607938c-7.089578 0-14.194208-2.468558-19.898986-7.526091L46.571454 504.037395c-12.493312-11.003146-13.667382-30.029105-2.679289-42.492312 11.048302-12.493312 30.104366-13.637278 42.47726-2.679289l262.946582 232.059503c12.493312 10.973041 13.667382 30.014053 2.679289 42.47726C346.01958 740.17604 337.740879 743.607938 329.417022 743.607938z" p-id="7782"></path><path d="M700.137234 745.489461c-8.293753 0-16.587506-3.416846-22.518066-10.115067-11.018198-12.433103-9.904336-31.489167 2.528767-42.507364l263.533618-233.941026c12.402999-11.018198 31.489167-9.934441 42.507364 2.528767 11.018198 12.433103 9.904336 31.504219-2.528767 42.537469l-263.533618 233.910922C714.391651 742.990798 707.241864 745.489461 700.137234 745.489461z" p-id="7783"></path></svg>