<?xml version="1.0" standalone="no"?><!DOCTYPE svg PUBLIC "-//W3C//DTD SVG 1.1//EN" "http://www.w3.org/Graphics/SVG/1.1/DTD/svg11.dtd"><svg t="1639044492276" class="icon" viewBox="0 0 1024 1024" version="1.1" xmlns="http://www.w3.org/2000/svg" p-id="1888" xmlns:xlink="http://www.w3.org/1999/xlink" width="200" height="200"><defs><style type="text/css"></style></defs><path d="M978.944 848.5888c-8.6016-39.7824-41.6256-66.3808-82.7136-66.6368-11.2384-0.0768-22.5024 0-33.7664 0a125.696 125.696 0 0 0 76.4416-115.7376c0.1024-69.4016-55.8848-125.824-124.9792-125.9008-68.9408-0.1024-125.2608 56.3456-125.3888 125.6448a125.5424 125.5424 0 0 0 76.5184 115.8656c-12.0832-0.0256-24.1408 0-36.224 0.2816-38.9888 0.896-71.2448 26.7776-79.616 64.7424-2.6368 12.0064-1.9968 22.9376-2.5344 35.3792-0.3328 7.7568-0.0768 21.8112-0.0768 21.8112h-7.1936c0-17.3824 0.1024-24.96-0.0256-38.1184-0.4608-49.3312-36.6592-84.7104-85.6576-84.8384-10.4704-0.0256-20.9408 0.1024-31.3856 0.128a125.6448 125.6448 0 0 0 75.0848-115.0208c0.0256-69.3504-56.1152-125.824-125.1072-125.9008-69.0688-0.0512-125.056 56.1664-125.2096 125.696a125.3376 125.3376 0 0 0 75.8016 115.6096c-10.7008 0.0768-21.4016 0.0256-32.128 0.128-9.8304 0.0768-20.1216 1.792-29.4144 4.9664-34.3808 11.6992-55.8336 42.7776-56.2688 79.7184-0.1536 13.568-0.0256 27.1872-0.0256 40.3712l0.8448 12.0832c-100.1216-15.1296-177.2032-101.632-177.2032-206.08v-34.7648c0-113.792 91.4432-206.464 204.5952-208.4864 222.5408 0.128 415.0272-0.1792 639.6928-0.1792h7.6288c0.1024 0 0.2048-2.6624 0.2048-3.7632 0-40.576 0.0768-80.9728-0.0768-121.5488a83.4048 83.4048 0 0 0-1.8432-17.0752c-8.6016-39.7824-41.6256-66.3808-82.7136-66.6368-11.2384-0.0768-22.5024 0-33.7664 0a125.696 125.696 0 0 0 76.4416-115.7376C938.9824 75.1872 882.9952 18.7648 813.9008 18.688 744.96 18.5856 688.64 75.0336 688.512 144.3328a125.5424 125.5424 0 0 0 76.5184 115.8656c-12.0832-0.0256-24.1408 0-36.224 0.2816-38.9888 0.896-71.2448 26.7776-79.616 64.7424-2.6368 12.0064-1.9968 22.9632-2.5344 35.3792-0.3328 7.7568-0.0768 21.8112-0.0768 21.8112h-7.1936c0-17.3824 0.1024-24.9344-0.0256-38.1184-0.4608-49.3312-36.6592-84.7104-85.6576-84.8384-10.4704-0.0256-20.9408 0.128-31.3856 0.128a125.6448 125.6448 0 0 0 75.0848-115.0208c0.0256-69.3504-56.1152-125.824-125.1072-125.9008-69.0688-0.0512-125.056 56.1664-125.2096 125.6704a125.3376 125.3376 0 0 0 75.8016 115.6096c-10.7008 0.0768-21.4016 0.0512-32.128 0.128-9.8304 0.0768-20.1216 1.792-29.4144 4.9664-34.3808 11.6992-55.8336 42.7776-56.2688 79.7184-0.1536 13.568-0.0256 27.1872-0.0256 40.3712l1.152 16.4864c-138.6752 15.4112-246.9376 133.4528-246.9376 276.4032v34.7648c0 141.6704 106.3424 258.7392 243.2256 275.84l-0.1536 2.3552v0.1792c243.0208 0.1536 438.4256-0.1792 670.6944-0.1792H980.6592c0.1024 0 0.2048-2.6624 0.2048-3.7632 0-40.576 0.0768-80.9728-0.0768-121.5744a83.1744 83.1744 0 0 0-1.8432-17.0496z" p-id="1889"></path></svg>