<svg width="16" height="16" viewBox="0 0 16 16" fill="none"
    xmlns="http://www.w3.org/2000/svg">
    <g clip-path="url(#clip0_961_66408)">
        <path d="M8 0C3.58172 0 0 3.58172 0 8C0 12.4183 3.58172 16 8 16C12.4183 16 16 12.4183 16 8C16 3.58172 12.4183 0 8 0ZM3.27078 7.55406C3.24266 7.85641 2.98844 8.08344 2.69047 8.08344C2.67234 8.08344 2.65422 8.08266 2.63578 8.08094C2.315 8.05094 2.07922 7.76688 2.10891 7.44594C2.38469 4.48266 4.83781 2.17875 7.81516 2.08687C8.14406 2.07609 8.40641 2.32984 8.41625 2.65188C8.42641 2.97391 8.17328 3.24297 7.85125 3.25297C5.46094 3.32687 3.49172 5.17578 3.27063 7.55406H3.27078ZM8.53547 11.7487C8.53547 12.0709 8.27328 12.3334 7.95078 12.3334C7.62828 12.3334 7.36625 12.0711 7.36625 11.7487V6.22203C7.36625 5.89984 7.62844 5.63766 7.95078 5.63766C8.27312 5.63766 8.53547 5.89969 8.53547 6.22203V11.7487ZM8 4.97094C7.63188 4.97094 7.33328 4.6725 7.33328 4.30422C7.33328 3.93594 7.63172 3.6375 8 3.6375C8.36828 3.6375 8.66672 3.93594 8.66672 4.30422C8.66672 4.6725 8.36828 4.97094 8 4.97094Z" fill="#2F54EB"/>
    </g>
    <defs>
        <clipPath id="clip0_961_66408">
            <rect width="16" height="16" fill="white"/>
        </clipPath>
    </defs>
</svg>
