<?xml version="1.0" standalone="no"?><!DOCTYPE svg PUBLIC "-//W3C//DTD SVG 1.1//EN" "http://www.w3.org/Graphics/SVG/1.1/DTD/svg11.dtd"><svg t="1639044477673" class="icon" viewBox="0 0 1024 1024" version="1.1" xmlns="http://www.w3.org/2000/svg" p-id="1605" xmlns:xlink="http://www.w3.org/1999/xlink" width="200" height="200"><defs><style type="text/css"></style></defs><path d="M847.793231 252.691692l-277.740308-158.483692a120.753231 120.753231 0 0 0-118.153846 0l-275.692308 158.483692C138.870154 273.250462 118.153846 312.32 118.153846 353.516308v316.967384c0 41.156923 22.803692 80.265846 58.052923 100.824616l275.692308 158.483692a120.753231 120.753231 0 0 0 118.153846 0l277.740308-158.483692c37.336615-20.558769 58.052923-59.667692 58.052923-100.824616V353.516308a118.232615 118.232615 0 0 0-58.052923-100.824616z m-107.795693 162.579693l-186.525538 111.143384v224.334769a41.432615 41.432615 0 0 1-82.944 0v-224.334769l-186.525538-111.143384c-18.668308-12.366769-26.978462-37.021538-14.532924-55.571693 12.445538-18.510769 37.297231-26.781538 55.965539-14.414769L512 456.467692l186.564923-111.143384c18.668308-12.327385 45.607385-6.183385 55.965539 14.414769 12.445538 18.510769 6.222769 43.204923-14.532924 55.571692z" p-id="1606"></path></svg>