<?xml version="1.0" standalone="no"?><!DOCTYPE svg PUBLIC "-//W3C//DTD SVG 1.1//EN" "http://www.w3.org/Graphics/SVG/1.1/DTD/svg11.dtd"><svg t="1645683064445" class="icon" viewBox="0 0 1024 1024" version="1.1" xmlns="http://www.w3.org/2000/svg" p-id="1445" xmlns:xlink="http://www.w3.org/1999/xlink" width="200" height="200"><defs><style type="text/css"></style></defs><path d="M748.242824 252.144941a56.741647 56.741647 0 0 1 25.780705 64.150588c1.445647 6.264471 2.168471 12.709647 2.048 19.154824l-0.843294 9.697882 32.045177 184.741647 118.181647 88.425412a47.585882 47.585882 0 0 1 9.818353 66.017882 46.381176 46.381176 0 0 1-60.837647 12.830118l-2.288941-1.385412-2.168471-1.505882-133.180235-99.689412a47.344941 47.344941 0 0 1-16.444236-22.829176l-1.807058-6.927059-14.516706-84.088471-81.92 143.600942 97.159529 142.998588c11.444706 16.865882 12.950588 38.671059 4.216471 56.801882l-3.734589 6.625882-102.52047 156.370824a55.597176 55.597176 0 0 1-74.571294 17.829647l-3.011765-1.927529a57.103059 57.103059 0 0 1-19.275294-72.402824l3.614118-6.144 81.618823-124.506353-68.306823-100.592941-281.47953 299.489882a55.536941 55.536941 0 0 1-79.149176 1.92753 57.103059 57.103059 0 0 1-6.505412-74.571294l4.517647-5.481412 295.333647-314.127059c0.361412-8.794353 2.048-17.709176 5.481412-26.262588l4.096-8.312471L603.557647 354.785882l-109.869176 11.324236-96.858353 142.998588a46.501647 46.501647 0 0 1-19.456 16.384v1.746823a26.985412 26.985412 0 0 1-11.203765 19.456l-4.216471 2.409412-17.588706 8.252235-0.843294 0.301177-0.843294 0.301176 25.47953 56.19953a44.393412 44.393412 0 0 1-16.26353 55.597176l-5.24047 2.831059-27.828706 12.950588-93.003294-129.626353 10.480941-4.939294c3.915294-1.807059 6.023529-5.903059 5.601882-9.938823l-0.843294-3.011765-4.035765-8.914823a9.697882 9.697882 0 0 0-9.818353-5.722353l-3.011764 0.843294-10.541177 4.939294-36.442353-156.009412 27.828706-12.830118a43.369412 43.369412 0 0 1 55.055059 16.384l2.831059 5.300706 25.479529 56.139294 1.566118-0.843294 17.648941-8.192a26.443294 26.443294 0 0 1 27.768471 3.433412L428.995765 294.550588a46.863059 46.863059 0 0 1 27.105882-19.094588l6.625882-1.204706 232.869647-23.853176a55.235765 55.235765 0 0 1 52.645648 1.807058zM170.164706 382.072471L205.402353 533.082353l-7.589647 3.614118a9.878588 9.878588 0 0 0-5.601882 9.938823l0.843294 3.011765 4.035764 8.914823c1.807059 3.915294 5.842824 6.083765 9.878589 5.662118l3.011764-0.843294 7.529412-3.433412 90.112 125.470118-92.280471 42.887529a38.671059 38.671059 0 0 1-48.730352-14.215529l-2.770824-5.059765L58.729412 477.003294A39.755294 39.755294 0 0 1 72.282353 428.032l5.481412-3.072 92.340706-42.887529z m151.190588 129.204705l15.179294 33.129412 0.90353-0.180706 0.903529-0.240941 17.648941-8.131765a12.167529 12.167529 0 0 0 6.083765-6.505411 45.477647 45.477647 0 0 1-26.985412-6.02353 46.863059 46.863059 0 0 1-13.673412-12.047059zM316.837647 441.524706l-3.072 0.963765-17.648941 8.192-0.783059 0.542117-0.662588 0.602353 17.950117 39.755294a47.706353 47.706353 0 0 1 4.035765-30.479059l3.252706-5.541647 7.228235-10.842353a12.047059 12.047059 0 0 0-10.24-3.19247z m536.094118-391.408941c64.030118 0 115.892706 52.525176 115.892706 117.278117a116.615529 116.615529 0 0 1-115.892706 117.338353 116.615529 116.615529 0 0 1-115.892706-117.338353c0-64.752941 51.862588-117.278118 115.892706-117.278117z" p-id="1446"></path></svg>