<?xml version="1.0" standalone="no"?><!DOCTYPE svg PUBLIC "-//W3C//DTD SVG 1.1//EN" "http://www.w3.org/Graphics/SVG/1.1/DTD/svg11.dtd"><svg t="1639044503326" class="icon" viewBox="0 0 1024 1024" version="1.1" xmlns="http://www.w3.org/2000/svg" p-id="2317" xmlns:xlink="http://www.w3.org/1999/xlink" width="200" height="200"><defs><style type="text/css"></style></defs><path d="M170.651826 58.946783S253.106087 29.028174 341.348174 6.322087c88.242087-22.438957 193.669565 18.743652 256 63.977739C836.073739 232.002783 1024 42.073043 1024 42.073043v648.770783s-88.242087 77.156174-214.77287 77.156174c-126.575304 0-205.156174-64.022261-287.610434-110.948174-212.947478-86.683826-350.96487 77.022609-350.96487 77.022609V58.857739v0.044522zM42.651826 1024C19.144348 1024 0 999.513043 0 969.371826V54.628174C0 24.486957 19.144348 0 42.651826 0c23.596522 0 42.696348 24.486957 42.696348 54.628174v914.743652c0 30.141217-19.144348 54.628174-42.696348 54.628174z" p-id="2318"></path></svg>